<svg width="32" height="32" viewBox="0 0 32 32" fill="none" xmlns="http://www.w3.org/2000/svg">
<g clip-path="url(#clip0)">
<path d="M26.828 24.5721C26.828 24.9501 26.573 25.2221 26.206 25.2221C25.828 25.2221 25.584 24.9331 25.584 24.5721C25.584 24.2111 25.828 23.9221 26.206 23.9221C26.573 23.9221 26.828 24.2111 26.828 24.5721ZM9.56102 23.9221C9.16602 23.9221 8.93902 24.2111 8.93902 24.5721C8.93902 24.9331 9.16702 25.2221 9.56102 25.2221C9.92202 25.2221 10.166 24.9501 10.166 24.5721C10.16 24.2111 9.92202 23.9221 9.56102 23.9221ZM16.089 23.9061C15.789 23.9061 15.605 24.1001 15.561 24.3891H16.622C16.572 24.0721 16.378 23.9061 16.089 23.9061ZM22.078 23.9221C21.7 23.9221 21.473 24.2111 21.473 24.5721C21.473 24.9331 21.701 25.2221 22.078 25.2221C22.456 25.2221 22.7 24.9501 22.7 24.5721C22.7 24.2111 22.455 23.9221 22.078 23.9221ZM27.961 25.3721C27.961 25.3891 27.978 25.4001 27.978 25.4331C27.978 25.4501 27.961 25.4611 27.961 25.4941C27.944 25.5111 27.944 25.5221 27.933 25.5381C27.916 25.5551 27.905 25.5661 27.872 25.5661C27.855 25.5831 27.844 25.5831 27.811 25.5831C27.794 25.5831 27.783 25.5831 27.75 25.5661C27.733 25.5661 27.722 25.5491 27.706 25.5381C27.689 25.5211 27.678 25.5101 27.678 25.4941C27.661 25.4661 27.661 25.4501 27.661 25.4331C27.661 25.4051 27.661 25.3891 27.678 25.3721C27.678 25.3441 27.695 25.3281 27.706 25.3111C27.723 25.2941 27.734 25.2941 27.75 25.2831C27.778 25.2661 27.794 25.2661 27.811 25.2661C27.839 25.2661 27.855 25.2661 27.872 25.2831C27.9 25.2991 27.916 25.2991 27.933 25.3111C27.95 25.3231 27.944 25.3441 27.961 25.3721ZM27.839 25.4501C27.867 25.4501 27.867 25.4331 27.883 25.4331C27.9 25.4161 27.9 25.4051 27.9 25.3891C27.9 25.3731 27.9 25.3611 27.883 25.3451C27.867 25.3451 27.855 25.3281 27.822 25.3281H27.733V25.5221H27.777V25.4441H27.794L27.855 25.5221H27.899L27.839 25.4501ZM32 6.27808V25.8341C31.9998 26.5413 31.7187 27.2195 31.2186 27.7196C30.7185 28.2197 30.0403 28.5008 29.333 28.5011H2.66602C1.95877 28.5008 1.28056 28.2197 0.780462 27.7196C0.28036 27.2195 -0.000711526 26.5413 -0.000976562 25.8341V6.27808C-0.000711526 5.57083 0.28036 4.89262 0.780462 4.39252C1.28056 3.89242 1.95877 3.61135 2.66602 3.61108H29.333C30.0403 3.61135 30.7185 3.89242 31.2186 4.39252C31.7187 4.89262 31.9998 5.57083 32 6.27808ZM3.55602 14.0331C3.55602 18.2831 7.00602 21.7271 11.25 21.7271C12.7615 21.7228 14.2387 21.2768 15.5 20.4441C11.45 17.1501 11.478 10.9331 15.5 7.63808C14.2399 6.80272 12.7619 6.35653 11.25 6.35508C7.00602 6.35008 3.55602 9.79908 3.55602 14.0331ZM16 20.0781C19.917 17.0221 19.9 11.0671 16 7.99508C12.1 11.0671 12.083 17.0281 16 20.0781ZM8.09402 24.3171C8.09402 23.8341 7.77702 23.5171 7.27702 23.5001C7.02102 23.5001 6.74902 23.5781 6.56602 23.8611C6.43302 23.6331 6.20502 23.5001 5.88802 23.5001C5.77283 23.4983 5.65896 23.5247 5.5563 23.577C5.45365 23.6293 5.36533 23.7059 5.29902 23.8001V23.5561H4.84402V25.5951H5.29902C5.29902 24.5451 5.16002 23.9171 5.79902 23.9171C6.36602 23.9171 6.25502 24.4841 6.25502 25.5951H6.69402C6.69402 24.5781 6.55502 23.9171 7.19402 23.9171C7.76102 23.9171 7.64902 24.4731 7.64902 25.5951H8.10502V24.3171H8.09402ZM10.589 23.5561H10.15V23.8001C10.0723 23.7031 9.97315 23.6256 9.86035 23.5735C9.74755 23.5215 9.6242 23.4963 9.50002 23.5001C8.92802 23.5001 8.48902 23.9561 8.48902 24.5721C8.48902 25.1941 8.92802 25.6441 9.50002 25.6441C9.78902 25.6441 10 25.5381 10.15 25.3441V25.6001H10.589V23.5561ZM12.839 24.9781C12.839 24.1451 11.567 24.5221 11.567 24.1331C11.567 23.8161 12.228 23.8671 12.595 24.0721L12.778 23.7111C12.256 23.3721 11.1 23.3781 11.1 24.1671C11.1 24.9611 12.372 24.6281 12.372 25.0001C12.372 25.3501 11.622 25.3221 11.222 25.0441L11.028 25.3941C11.65 25.8161 12.839 25.7271 12.839 24.9771V24.9781ZM14.806 25.4941L14.684 25.1161C14.473 25.2321 14.006 25.3601 14.006 24.8881V23.9661H14.734V23.5551H14.006V22.9331H13.55V23.5551H13.128V23.9611H13.55V24.8891C13.55 25.8671 14.511 25.6891 14.806 25.4941ZM15.544 24.7501H17.072C17.072 23.8501 16.661 23.4941 16.105 23.4941C15.516 23.4941 15.094 23.9331 15.094 24.5661C15.094 25.7051 16.35 25.8941 16.972 25.3551L16.761 25.0221C16.328 25.3781 15.672 25.3441 15.544 24.7501ZM18.828 23.5561C18.573 23.4451 18.184 23.4561 17.984 23.8001V23.5561H17.528V25.5951H17.984V24.4451C17.984 23.8001 18.512 23.8841 18.695 23.9781L18.828 23.5561ZM19.417 24.5721C19.417 23.9381 20.062 23.7331 20.567 24.1051L20.778 23.7441C20.133 23.2391 18.961 23.5161 18.961 24.5771C18.961 25.6771 20.205 25.8991 20.778 25.4101L20.567 25.0491C20.056 25.4101 19.417 25.1941 19.417 24.5711V24.5721ZM23.122 23.5561H22.666V23.8001C22.205 23.1891 21.005 23.5341 21.005 24.5721C21.005 25.6391 22.249 25.9441 22.666 25.3441V25.6001H23.122V23.5561ZM24.994 23.5561C24.861 23.4891 24.383 23.3951 24.15 23.8001V23.5561H23.711V25.5951H24.15V24.4451C24.15 23.8341 24.65 23.8731 24.861 23.9781L24.994 23.5561ZM27.233 22.7281H26.794V23.8001C26.338 23.1951 25.133 23.5171 25.133 24.5721C25.133 25.6501 26.383 25.9381 26.794 25.3441V25.6001H27.233V22.7281ZM27.656 18.5561V18.8121H27.7V18.5561H27.805V18.5121H27.549V18.5561H27.656ZM28.022 25.4331C28.022 25.4051 28.022 25.3721 28.006 25.3441C27.989 25.3271 27.978 25.3001 27.962 25.2831C27.946 25.2661 27.918 25.2551 27.901 25.2391C27.873 25.2391 27.84 25.2221 27.812 25.2221C27.795 25.2221 27.768 25.2391 27.734 25.2391C27.7121 25.2514 27.6916 25.2662 27.673 25.2831C27.645 25.2991 27.629 25.3271 27.629 25.3441C27.612 25.3721 27.612 25.4051 27.612 25.4331C27.612 25.4501 27.612 25.4771 27.629 25.5111C27.629 25.5281 27.646 25.5551 27.673 25.5721C27.6899 25.591 27.7107 25.606 27.734 25.6161C27.762 25.6321 27.795 25.6321 27.812 25.6321C27.84 25.6321 27.873 25.6321 27.901 25.6161C27.918 25.5991 27.945 25.5881 27.962 25.5721C27.979 25.5561 27.99 25.5281 28.006 25.5111C28.022 25.4781 28.022 25.4501 28.022 25.4331ZM28.2 18.5061H28.122L28.033 18.7001L27.944 18.5061H27.866V18.8061H27.91V18.5781L27.999 18.7721H28.06L28.138 18.5781V18.8061H28.199L28.2 18.5061ZM28.444 14.0331C28.444 9.79908 24.994 6.35008 20.75 6.35008C19.2385 6.35387 17.7611 6.79986 16.5 7.63308C20.506 10.9281 20.567 17.1611 16.5 20.4391C17.7608 21.273 19.2384 21.7191 20.75 21.7221C24.994 21.7281 28.444 18.2831 28.444 14.0331Z" fill="white"/>
</g>
<defs>
<clipPath id="clip0">
<rect width="32" height="32" fill="white"/>
</clipPath>
</defs>
</svg>
