<svg width="24" height="24" viewBox="0 0 24 24" fill="none" xmlns="http://www.w3.org/2000/svg">
<path d="M15.6564 1.92224L15.1404 2.48474L13.8751 3.81974H11.1796V6.44474L9.88961 7.80449L9.37511 8.34449L9.89111 8.85974L11.0161 9.98474L2.27261 18.75L1.73486 19.29L2.27336 19.8045L4.19636 21.7267L4.73486 22.2652L5.25086 21.7252L14.0169 12.984L15.1419 14.109L15.6571 14.6242L16.1971 14.1082L17.5546 12.8197H20.1796V10.125L21.5161 8.85899L22.0786 8.34374L21.5401 7.80374L20.1796 6.44624V3.82124H17.5546L16.1956 2.45999L15.6556 1.92224H15.6564ZM15.6789 4.07774L16.7109 5.10899L16.9464 5.32049H18.6804V7.05449L18.8919 7.28924L19.9231 8.31974L18.9151 9.27974L18.6796 9.49124V11.3197H16.9456L16.7341 11.5297L15.6796 12.5385L15.0474 11.9047L17.9296 9.04499L18.4696 8.52974L17.9296 7.98974L16.0081 6.06974L15.4921 5.55224L14.9536 6.06974L12.0939 8.95124L11.4609 8.31899L12.4696 7.26449L12.6796 7.05299V5.32049H14.5096L14.7196 5.08574L15.6796 4.07849L15.6789 4.07774ZM15.4914 7.66424L16.3359 8.53049L4.73486 20.133L3.86786 19.2885L15.4929 7.66349L15.4914 7.66424ZM14.2501 15.75V16.5H13.5001V18H14.2501V18.75H15.7501V18H16.5001V16.5H15.7501V15.75H14.2501ZM18.7501 17.25V18.75H17.2501V20.25H18.7501V21.75H20.2501V20.25H21.7501V18.75H20.2501V17.25H18.7501Z" fill="#006EB6"/>
</svg>
