<svg width="16" height="16" viewBox="0 0 16 16" fill="none" xmlns="http://www.w3.org/2000/svg">
<path d="M12.1766 3.07188C10.7047 1.6 8.30783 1.6 6.83751 3.07188L2.75939 7.14688C2.73283 7.17344 2.71876 7.20938 2.71876 7.24688C2.71876 7.28438 2.73283 7.32032 2.75939 7.34688L3.33595 7.92344C3.36231 7.94968 3.39798 7.96441 3.43517 7.96441C3.47236 7.96441 3.50804 7.94968 3.53439 7.92344L7.61251 3.84844C8.11876 3.34219 8.7922 3.06407 9.50783 3.06407C10.2235 3.06407 10.8969 3.34219 11.4016 3.84844C11.9078 4.35469 12.186 5.02813 12.186 5.74219C12.186 6.45782 11.9078 7.12969 11.4016 7.63594L7.24533 11.7906L6.57189 12.4641C5.9422 13.0938 4.91876 13.0938 4.28908 12.4641C3.98439 12.1594 3.8172 11.7547 3.8172 11.3234C3.8172 10.8922 3.98439 10.4875 4.28908 10.1828L8.41251 6.06094C8.5172 5.95782 8.6547 5.9 8.80158 5.9H8.80314C8.95001 5.9 9.08595 5.95782 9.18908 6.06094C9.29376 6.16563 9.35001 6.30313 9.35001 6.45C9.35001 6.59531 9.2922 6.73282 9.18908 6.83594L5.81876 10.2031C5.7922 10.2297 5.77814 10.2656 5.77814 10.3031C5.77814 10.3406 5.7922 10.3766 5.81876 10.4031L6.39533 10.9797C6.42168 11.0059 6.45736 11.0207 6.49455 11.0207C6.53173 11.0207 6.56741 11.0059 6.59376 10.9797L9.96251 7.61094C10.2735 7.3 10.4438 6.8875 10.4438 6.44844C10.4438 6.00938 10.2719 5.59532 9.96251 5.28594C9.32033 4.64375 8.27658 4.64532 7.63439 5.28594L7.23439 5.6875L3.51251 9.40781C3.25991 9.65894 3.05967 9.95772 2.92341 10.2868C2.78716 10.6159 2.7176 10.9688 2.71876 11.325C2.71876 12.0484 3.00158 12.7281 3.51251 13.2391C4.0422 13.7672 4.73595 14.0313 5.4297 14.0313C6.12345 14.0313 6.8172 13.7672 7.34533 13.2391L12.1766 8.41094C12.8875 7.69844 13.2813 6.75 13.2813 5.74219C13.2828 4.73282 12.8891 3.78438 12.1766 3.07188Z" fill="#00B39B"/>
</svg>
