<svg width="24" height="24" viewBox="0 0 24 24" fill="none" xmlns="http://www.w3.org/2000/svg">
<path d="M3.24399 5.39531L5.74009 2.90156C5.91616 2.72471 6.12545 2.58439 6.35592 2.48867C6.58638 2.39294 6.8335 2.34369 7.08306 2.34375C7.59165 2.34375 8.06977 2.54297 8.42837 2.90156L11.1143 5.5875C11.2912 5.76358 11.4315 5.97286 11.5272 6.20333C11.6229 6.4338 11.6722 6.68091 11.6721 6.93047C11.6721 7.43906 11.4729 7.91719 11.1143 8.27578L9.15024 10.2398C9.60999 11.2532 10.2492 12.175 11.037 12.9609C11.8228 13.7506 12.7446 14.3922 13.7581 14.8547L15.7221 12.8906C15.8982 12.7138 16.1075 12.5735 16.3379 12.4777C16.5684 12.382 16.8155 12.3328 17.0651 12.3328C17.5737 12.3328 18.0518 12.532 18.4104 12.8906L21.0987 15.5742C21.2757 15.7506 21.4162 15.9603 21.5119 16.1912C21.6077 16.4221 21.6568 16.6696 21.6565 16.9195C21.6565 17.4281 21.4573 17.9062 21.0987 18.2648L18.6073 20.7562C18.0354 21.3305 17.2456 21.6562 16.4346 21.6562C16.2635 21.6562 16.0995 21.6422 15.9377 21.6141C12.7784 21.0938 9.64477 19.4133 7.11587 16.8867C4.5893 14.3625 2.91118 11.2312 2.38384 8.0625C2.22446 7.09453 2.54556 6.09844 3.24399 5.39531Z" fill="#00B39B"/>
</svg>
