<svg width="24" height="24" viewBox="0 0 24 24" fill="none" xmlns="http://www.w3.org/2000/svg">
<path d="M15.75 2.25004C12.4275 2.25004 9.75004 4.92754 9.75004 8.25004C9.75004 8.42629 9.77779 8.66479 9.79729 8.88304L3.37504 15.3045C3.02424 15.6531 2.74584 16.0675 2.55585 16.5241C2.36587 16.9807 2.26807 17.4703 2.26807 17.9648C2.26807 18.4593 2.36587 18.9489 2.55585 19.4055C2.74584 19.862 3.02424 20.2765 3.37504 20.625C3.72357 20.9758 4.13805 21.2542 4.59461 21.4442C5.05116 21.6342 5.54079 21.732 6.03529 21.732C6.5298 21.732 7.01942 21.6342 7.47598 21.4442C7.93254 21.2542 8.34701 20.9758 8.69554 20.625L15.117 14.2028C15.3345 14.2223 15.5745 14.25 15.75 14.25C19.0725 14.25 21.75 11.5725 21.75 8.25004C21.754 7.28329 21.5119 6.33142 21.0465 5.48404L20.5778 4.61704L19.875 5.32054L16.6403 8.53054L15.4688 7.35904L18.6788 4.12504L19.3838 3.42154L18.516 2.95279C17.6683 2.48833 16.7166 2.24654 15.75 2.25004ZM15.75 3.75004C16.1145 3.75004 16.386 3.90754 16.71 3.98479L13.875 6.81979L13.335 7.35979L13.875 7.87504L16.125 10.125L16.641 10.665L17.1795 10.125L20.016 7.29004C20.0933 7.61404 20.25 7.88554 20.25 8.25004C20.25 10.7775 18.2775 12.75 15.75 12.75C15.45 12.75 15.21 12.75 15.0225 12.7028L14.625 12.5858L14.3205 12.891L7.64029 19.5713C6.71779 20.4938 5.35279 20.4938 4.43029 19.5713L4.40629 19.5473C3.50629 18.6248 3.51379 17.2748 4.42879 16.3598L11.109 9.68029L11.4143 9.37579L11.2958 8.97829C11.2508 8.79079 11.2493 8.55079 11.2493 8.25079C11.2493 5.72329 13.2218 3.75079 15.7493 3.75079L15.75 3.75004Z" fill="#00B39B"/>
</svg>
