<svg width="38" height="38" viewBox="0 0 38 38" fill="none" xmlns="http://www.w3.org/2000/svg">
<path d="M19.5777 2.3751C10.8246 2.3751 3.69075 9.50898 3.69075 18.262C3.69075 21.0675 4.42819 23.7928 5.80687 26.1975L3.5625 34.4375L11.9789 32.2252C14.3034 33.4917 16.9165 34.165 19.5777 34.165C28.3307 34.165 35.4646 27.0311 35.4646 18.278C35.4646 14.0298 33.8134 10.038 30.8155 7.04017C29.3458 5.55557 27.5952 4.37846 25.6657 3.57752C23.7363 2.77657 21.6667 2.36782 19.5777 2.3751ZM19.5937 5.05231C23.1206 5.05231 26.423 6.43099 28.9239 8.93186C30.1512 10.1588 31.1243 11.616 31.7873 13.2198C32.4503 14.8237 32.7901 16.5426 32.7874 18.278C32.7874 25.5562 26.8558 31.4717 19.5777 31.4717C17.2051 31.4717 14.8805 30.8465 12.8606 29.6281L12.3797 29.3556L7.37793 30.6702L8.70852 25.7967L8.38789 25.2837C7.06362 23.1815 6.36317 20.7466 6.36796 18.262C6.38399 10.9839 12.2995 5.05231 19.5937 5.05231ZM13.9507 10.9197C13.6942 10.9197 13.2614 11.0159 12.8927 11.4167C12.54 11.8175 11.4979 12.7954 11.4979 14.7352C11.4979 16.691 12.9247 18.5666 13.1011 18.8391C13.3255 19.1117 15.9226 23.1195 19.9143 24.8188C20.8602 25.2516 21.5976 25.4921 22.1747 25.6684C23.1206 25.973 23.9863 25.9249 24.6756 25.8287C25.4451 25.7165 27.0161 24.8669 27.3528 23.9371C27.6895 23.0073 27.6895 22.2217 27.5933 22.0454C27.4811 21.8851 27.2246 21.7889 26.8238 21.6125C26.423 21.3881 24.4672 20.4262 24.1145 20.298C23.7458 20.1697 23.5213 20.1056 23.2168 20.4904C22.9603 20.8911 22.1908 21.7889 21.9663 22.0454C21.7259 22.3179 21.5014 22.35 21.1167 22.1576C20.6999 21.9492 19.4174 21.5324 17.9104 20.1858C16.7241 19.1277 15.9386 17.8292 15.6981 17.4284C15.5057 17.0436 15.6821 16.8032 15.8745 16.6268C16.0508 16.4505 16.3073 16.1619 16.4676 15.9215C16.676 15.697 16.7401 15.5207 16.8684 15.2642C16.9966 14.9917 16.9325 14.7672 16.8363 14.5748C16.7401 14.3985 15.9386 12.4106 15.6019 11.6251C15.2813 10.8556 14.9607 10.9518 14.7042 10.9358C14.4797 10.9358 14.2232 10.9197 13.9507 10.9197Z" fill="white"/>
</svg>
