<?xml version="1.0" encoding="utf-8"?><svg viewBox="0 0 42 86" xmlns="http://www.w3.org/2000/svg" xmlns:xlink="http://www.w3.org/1999/xlink"><style>:root>svg{display:none}:root>svg:target{display:block}</style><svg fill="none" viewBox="0 0 32 86" id="arrow-down" xmlns="http://www.w3.org/2000/svg"><path d="M13.619 0v76.672L3.429 66.284 0 69.697l14.286 14.556L16 86l1.714-1.747L32 69.698l-3.429-3.411-10.19 10.385V0h-4.762z" fill="#fff"/></svg><svg fill="none" viewBox="0 0 20 7" id="arrow-left" xmlns="http://www.w3.org/2000/svg"><path d="M20 2.98H2.17L4.584.75 3.791 0 .406 3.125 0 3.5l.406.375L3.791 7l.794-.75-2.416-2.23H20V2.98z" fill="#B2B2B2"/></svg><svg fill="none" viewBox="0 0 32 49" id="arrow-up" xmlns="http://www.w3.org/2000/svg"><path opacity=".2" d="M18.381 49V9.328l10.19 10.388L32 16.302 17.714 1.747 16 0l-1.714 1.747L0 16.302l3.429 3.411 10.19-10.385V49h4.762z" fill="#1F1F1F"/></svg><svg fill="none" viewBox="0 0 42 33" id="burger" xmlns="http://www.w3.org/2000/svg"><path fill-rule="evenodd" clip-rule="evenodd" d="M42 5H0V0h42v5zm0 28H0v-5h42v5zM11 19h31v-5H11v5z" fill="#fff"/></svg><svg fill="none" viewBox="0 0 16 16" id="calendar-outlined" xmlns="http://www.w3.org/2000/svg"><path d="M13.75 2.875h-2.625v-1A.125.125 0 0011 1.75h-.875a.125.125 0 00-.125.125v1H6v-1a.125.125 0 00-.125-.125H5a.125.125 0 00-.125.125v1H2.25a.5.5 0 00-.5.5V13.75a.5.5 0 00.5.5h11.5a.5.5 0 00.5-.5V3.375a.5.5 0 00-.5-.5zm-.625 10.25H2.875V7.187h10.25v5.938zm-10.25-7V4h2v.75c0 .069.056.125.125.125h.875A.125.125 0 006 4.75V4h4v.75c0 .069.056.125.125.125H11a.125.125 0 00.125-.125V4h2v2.125H2.875z" fill="#00B39B"/></svg><svg fill="none" viewBox="0 0 32 32" id="cc-mastercard" xmlns="http://www.w3.org/2000/svg"><g clip-path="url(#fclip0)"><path d="M26.828 24.572c0 .378-.255.65-.622.65-.378 0-.622-.289-.622-.65 0-.36.244-.65.622-.65.367 0 .622.29.622.65zm-17.267-.65c-.395 0-.622.29-.622.65 0 .361.228.65.622.65.361 0 .605-.272.605-.65-.006-.36-.244-.65-.605-.65zm6.528-.016c-.3 0-.484.194-.528.483h1.061c-.05-.317-.244-.483-.533-.483zm5.989.016c-.378 0-.605.29-.605.65 0 .361.228.65.605.65.378 0 .622-.272.622-.65 0-.36-.245-.65-.622-.65zm5.883 1.45c0 .017.017.028.017.061 0 .017-.017.028-.017.061-.017.017-.017.028-.028.044-.017.017-.028.028-.061.028-.017.017-.028.017-.061.017-.017 0-.028 0-.061-.017-.017 0-.028-.017-.044-.028-.017-.017-.028-.028-.028-.044-.017-.028-.017-.044-.017-.06 0-.029 0-.045.017-.062 0-.028.017-.044.028-.06.017-.018.028-.018.044-.029.028-.017.044-.017.061-.017.028 0 .044 0 .061.017.028.016.044.016.061.028s.011.033.028.061zm-.122.078c.028 0 .028-.017.044-.017.017-.017.017-.028.017-.044 0-.016 0-.028-.017-.044-.016 0-.028-.017-.061-.017h-.089v.194h.044v-.078h.017l.061.078h.044l-.06-.072zM32 6.278v19.556a2.668 2.668 0 01-2.667 2.667H2.666a2.668 2.668 0 01-2.667-2.667V6.278a2.668 2.668 0 012.667-2.667h26.667A2.668 2.668 0 0132 6.278zM3.556 14.033c0 4.25 3.45 7.694 7.694 7.694a7.754 7.754 0 004.25-1.283c-4.05-3.294-4.022-9.51 0-12.806a7.705 7.705 0 00-4.25-1.283C7.006 6.35 3.556 9.8 3.556 14.033zM16 20.078c3.917-3.056 3.9-9.01 0-12.083-3.9 3.072-3.917 9.033 0 12.083zm-7.906 4.24c0-.484-.317-.8-.817-.818-.256 0-.528.078-.711.361-.133-.228-.361-.36-.678-.36a.706.706 0 00-.589.3v-.245h-.455v2.04h.455c0-1.05-.139-1.679.5-1.679.567 0 .456.567.456 1.678h.439c0-1.017-.139-1.678.5-1.678.567 0 .455.556.455 1.678h.456v-1.278h-.011zm2.495-.762h-.439v.244a.802.802 0 00-.65-.3c-.572 0-1.011.456-1.011 1.072 0 .622.439 1.072 1.011 1.072.289 0 .5-.106.65-.3v.256h.439v-2.044zm2.25 1.422c0-.833-1.272-.456-1.272-.845 0-.317.661-.266 1.028-.06l.183-.362c-.522-.339-1.678-.333-1.678.456 0 .794 1.272.461 1.272.833 0 .35-.75.322-1.15.044l-.194.35c.622.422 1.811.333 1.811-.417v.001zm1.967.516l-.122-.378c-.211.116-.678.244-.678-.228v-.922h.728v-.41h-.728v-.623h-.456v.622h-.422v.406h.422v.928c0 .978.961.8 1.256.605zm.738-.744h1.528c0-.9-.411-1.256-.967-1.256-.589 0-1.011.44-1.011 1.072 0 1.14 1.256 1.328 1.878.79l-.211-.334c-.433.356-1.089.322-1.217-.272zm3.284-1.194c-.255-.11-.644-.1-.844.244v-.244h-.456v2.04h.456v-1.15c0-.646.528-.562.711-.468l.133-.422zm.589 1.016c0-.634.645-.839 1.15-.467l.211-.36c-.645-.506-1.817-.229-1.817.832 0 1.1 1.244 1.322 1.817.833l-.211-.36c-.511.36-1.15.144-1.15-.479v.001zm3.705-1.016h-.456v.244c-.461-.61-1.661-.266-1.661.772 0 1.067 1.244 1.372 1.661.772v.256h.456v-2.044zm1.872 0c-.133-.067-.611-.16-.844.244v-.244h-.439v2.04h.439v-1.15c0-.612.5-.573.711-.468l.133-.422zm2.239-.828h-.439V23.8c-.456-.605-1.661-.283-1.661.772 0 1.078 1.25 1.366 1.661.772v.256h.439v-2.872zm.423-4.172v.256h.044v-.256h.105v-.044h-.256v.044h.107zm.366 6.877c0-.028 0-.06-.016-.089-.017-.017-.028-.044-.044-.06-.016-.018-.044-.029-.061-.045-.028 0-.061-.017-.089-.017-.017 0-.044.017-.078.017a.334.334 0 00-.061.044c-.028.016-.044.044-.044.061-.017.028-.017.061-.017.09 0 .016 0 .043.017.077 0 .017.017.044.044.061a.175.175 0 00.061.044.157.157 0 00.078.016c.028 0 .061 0 .089-.016.017-.017.044-.028.061-.044.017-.016.028-.044.044-.06.016-.034.016-.062.016-.079zm.178-6.927h-.078l-.089.194-.089-.194h-.078v.3h.044v-.228l.089.194h.061l.078-.194v.228h.061l.001-.3zm.244-4.473c0-4.234-3.45-7.683-7.694-7.683a7.745 7.745 0 00-4.25 1.283c4.006 3.295 4.067 9.528 0 12.806a7.732 7.732 0 004.25 1.283c4.244.006 7.694-3.439 7.694-7.689z" fill="#fff"/></g><defs><clipPath id="fclip0"><path fill="#fff" d="M0 0h32v32H0z"/></clipPath></defs></svg><svg fill="none" viewBox="0 0 32 32" id="cc-paypal" xmlns="http://www.w3.org/2000/svg"><g clip-path="url(#gclip0)"><path d="M10.35 16.122c0 .678-.539 1.194-1.222 1.194-.511 0-.889-.29-.889-.833 0-.678.528-1.222 1.206-1.222.517 0 .906.317.906.86h-.001zm-5.878-2.694h-.261c-.083 0-.167.056-.178.15l-.239 1.484.456-.017c.611 0 1.083-.083 1.194-.79.128-.744-.344-.827-.972-.827zm15.778 0H20c-.1 0-.167.056-.178.15l-.233 1.484.444-.017c.722 0 1.222-.167 1.222-1-.006-.59-.533-.617-1.006-.617h.001zM32 6.222v19.556a2.668 2.668 0 01-2.667 2.667H2.666a2.668 2.668 0 01-2.667-2.667V6.222a2.668 2.668 0 012.667-2.667h26.667A2.668 2.668 0 0132 6.222zM7.128 13.744c0-1.167-.9-1.556-1.928-1.556H2.978a.293.293 0 00-.289.26l-.911 5.673c-.017.11.067.222.178.222h1.056c.15 0 .289-.161.306-.317l.25-1.478c.056-.4.733-.261 1-.261 1.589 0 2.561-.944 2.561-2.544h-.001zm4.678.489H10.75c-.211 0-.222.306-.233.456-.322-.472-.789-.556-1.317-.556-1.361 0-2.4 1.194-2.4 2.51 0 1.084.678 1.79 1.761 1.79.5 0 1.122-.272 1.472-.661a1.471 1.471 0 00-.056.345c0 .128.056.222.178.222h.956c.15 0 .278-.161.306-.317l.567-3.572c.017-.106-.067-.217-.178-.217zm2.25 5.439l3.539-5.145c.028-.028.028-.056.028-.094 0-.094-.083-.194-.178-.194h-1.067a.318.318 0 00-.25.139l-1.472 2.167-.611-2.083a.337.337 0 00-.306-.222H12.7c-.095 0-.178.1-.178.194 0 .067 1.083 3.156 1.178 3.45-.15.21-1.139 1.589-1.139 1.756 0 .1.083.178.178.178h1.067a.327.327 0 00.25-.144v-.002zm8.85-5.928c0-1.167-.9-1.556-1.928-1.556h-2.206a.307.307 0 00-.306.26l-.9 5.668c-.011.11.072.222.178.222h1.139c.111 0 .194-.083.222-.178l.25-1.611c.056-.4.734-.261 1-.261 1.578 0 2.55-.944 2.55-2.544h.001zm4.677.489h-1.056c-.211 0-.222.306-.239.456-.306-.472-.778-.556-1.317-.556-1.361 0-2.4 1.194-2.4 2.51 0 1.084.678 1.79 1.761 1.79.517 0 1.139-.272 1.472-.661-.017.083-.056.26-.056.345 0 .128.056.222.178.222h.961c.15 0 .278-.161.306-.317l.567-3.572c.017-.106-.067-.217-.178-.217h.001zm2.639-1.85c0-.111-.083-.194-.178-.194h-1.028c-.083 0-.167.067-.178.15l-.9 5.778-.016.028c0 .1.083.194.194.194h.917c.139 0 .278-.161.289-.317l.9-5.622v-.017zm-5 2.878c-.678 0-1.206.539-1.206 1.222 0 .539.389.833.9.833.667 0 1.206-.511 1.206-1.194.006-.544-.383-.861-.9-.861z" fill="#fff"/></g><defs><clipPath id="gclip0"><path fill="#fff" d="M0 0h32v32H0z"/></clipPath></defs></svg><svg fill="none" viewBox="0 0 32 32" id="cc-visa" xmlns="http://www.w3.org/2000/svg"><g clip-path="url(#hclip0)"><path d="M26.117 14.628s.422 2.067.517 2.5h-1.855l.889-2.417c-.011.017.183-.506.294-.828l.155.745zM32 6.222v19.556a2.668 2.668 0 01-2.667 2.667H2.666a2.668 2.668 0 01-2.667-2.667V6.222a2.668 2.668 0 012.667-2.667h26.667A2.668 2.668 0 0132 6.222zM8.472 20.178l3.511-8.622H9.622l-2.183 5.889L7.2 16.25l-.778-3.967c-.128-.55-.522-.706-1.011-.728H1.817l-.039.172a8.785 8.785 0 012.344.95l1.989 7.5h2.361zm5.245.01l1.4-8.632h-2.233l-1.394 8.633h2.227zm7.772-2.821c.011-.983-.589-1.733-1.872-2.35-.783-.395-1.261-.661-1.261-1.067.011-.367.406-.745 1.283-.745a3.826 3.826 0 011.661.328l.2.094.306-1.867a5.553 5.553 0 00-2-.367c-2.206 0-3.756 1.178-3.767 2.855-.017 1.239 1.111 1.928 1.956 2.344.861.422 1.156.7 1.156 1.072-.011.578-.7.844-1.339.844-.889 0-1.367-.14-2.095-.461l-.294-.14-.311 1.94c.522.239 1.489.45 2.489.46 2.344.006 3.872-1.155 3.889-2.943l-.001.003zm7.844 2.822l-1.8-8.633h-1.728c-.533 0-.939.156-1.167.717l-3.317 7.917h2.344s.383-1.067.467-1.294h2.867c.067.306.267 1.294.267 1.294l2.067-.001z" fill="#fff"/></g><defs><clipPath id="hclip0"><path fill="#fff" d="M0 0h32v32H0z"/></clipPath></defs></svg><svg fill="none" viewBox="0 0 24 24" id="clock-circle-filled" xmlns="http://www.w3.org/2000/svg"><path d="M12 1.5C6.202 1.5 1.5 6.202 1.5 12S6.202 22.5 12 22.5 22.5 17.798 22.5 12 17.798 1.5 12 1.5zm4.137 13.727l-.67.914a.188.188 0 01-.263.04l-3.877-2.826a.186.186 0 01-.077-.153V6.75c0-.103.084-.188.188-.188h1.127c.103 0 .187.085.187.188v5.8l3.342 2.417a.184.184 0 01.043.26z" fill="#00B39B"/></svg><svg fill="none" viewBox="0 0 32 32" id="facebook-filled" xmlns="http://www.w3.org/2000/svg"><path d="M27.5 3.5h-23c-.553 0-1 .447-1 1v23c0 .553.447 1 1 1h23c.553 0 1-.447 1-1v-23c0-.553-.447-1-1-1zm-2.887 7.297h-1.997c-1.566 0-1.87.744-1.87 1.837v2.41h3.738l-.487 3.772h-3.25V28.5H16.85v-9.681h-3.26v-3.775h3.26v-2.782c0-3.228 1.972-4.987 4.853-4.987 1.381 0 2.566.103 2.913.15v3.372h-.003z" fill="#00B39B"/></svg><svg fill="none" viewBox="0 0 24 24" id="fantasy" xmlns="http://www.w3.org/2000/svg"><path d="M15.656 1.922l-.516.563-1.265 1.335H11.18v2.625l-1.29 1.36-.515.54.516.515 1.125 1.125-8.743 8.765-.538.54.538.515 1.923 1.922.539.538.516-.54 8.766-8.741 1.125 1.125.515.515.54-.516 1.358-1.288h2.625v-2.695l1.336-1.266.563-.515-.539-.54-1.36-1.358V3.821h-2.625l-1.36-1.361-.54-.538h.001zm.023 2.156l1.032 1.031.235.211h1.734v1.734l.212.235 1.031 1.03-1.008.96-.235.212v1.829h-1.734l-.212.21-1.054 1.009-.633-.634 2.883-2.86.54-.515-.54-.54-1.922-1.92-.516-.518-.538.518-2.86 2.881-.633-.632 1.009-1.055.21-.211V5.32h1.83l.21-.234.96-1.008h-.001zm-.188 3.586l.845.866L4.735 20.133l-.867-.845L15.493 7.663l-.002.001zm-1.24 8.086v.75h-.75V18h.75v.75h1.5V18h.75v-1.5h-.75v-.75h-1.5zm4.5 1.5v1.5h-1.5v1.5h1.5v1.5h1.5v-1.5h1.5v-1.5h-1.5v-1.5h-1.5z" fill="#006EB6"/></svg><svg fill="none" viewBox="0 0 32 32" id="instagram-filled" xmlns="http://www.w3.org/2000/svg"><path d="M16 11.834A4.174 4.174 0 0011.835 16 4.174 4.174 0 0016 20.166 4.174 4.174 0 0020.166 16 4.175 4.175 0 0016 11.834zM28.494 16c0-1.725.015-3.434-.081-5.156-.097-2-.553-3.775-2.016-5.238C24.931 4.14 23.16 3.687 21.16 3.59c-1.726-.096-3.435-.08-5.157-.08-1.725 0-3.434-.016-5.156.08-2 .097-3.775.554-5.237 2.016-1.466 1.466-1.92 3.238-2.016 5.238-.097 1.725-.081 3.434-.081 5.156 0 1.722-.016 3.434.08 5.156.098 2 .554 3.775 2.017 5.238 1.465 1.465 3.237 1.918 5.237 2.015 1.725.097 3.434.082 5.156.082 1.725 0 3.435.015 5.157-.082 2-.097 3.774-.553 5.237-2.015 1.466-1.466 1.919-3.238 2.016-5.238.1-1.722.08-3.431.08-5.156zM16 22.41A6.4 6.4 0 019.59 16 6.4 6.4 0 0116 9.59 6.4 6.4 0 0122.41 16 6.4 6.4 0 0116 22.41zm6.672-11.585a1.495 1.495 0 01-1.497-1.497c0-.828.669-1.497 1.497-1.497a1.495 1.495 0 011.383 2.07 1.496 1.496 0 01-1.383.924z" fill="#00B39B"/></svg><svg fill="none" viewBox="0 0 18 18" id="lock" xmlns="http://www.w3.org/2000/svg"><path d="M9 1.688a3.953 3.953 0 00-3.938 3.937v1.688H3.375v9h11.25v-9h-1.688V5.625A3.953 3.953 0 009 1.687zm0 1.125a2.817 2.817 0 012.813 2.812v1.688H6.186V5.625A2.817 2.817 0 019 2.812zM4.5 8.436h9v6.75h-9v-6.75z" fill="#00B39B"/></svg><svg fill="none" viewBox="0 0 24 24" id="mail-filled" xmlns="http://www.w3.org/2000/svg"><path d="M21.75 3.75H2.25a.75.75 0 00-.75.75v15c0 .415.335.75.75.75h19.5a.75.75 0 00.75-.75v-15a.75.75 0 00-.75-.75zm-1.894 2.552l-7.394 5.754a.504.504 0 01-.621 0L4.444 6.302A.169.169 0 014.547 6h15.206a.169.169 0 01.103.302z" fill="#00B39B"/></svg><svg fill="none" viewBox="0 0 16 16" id="paper-clip-outlined" xmlns="http://www.w3.org/2000/svg"><path d="M12.177 3.072a3.78 3.78 0 00-5.34 0L2.76 7.147a.14.14 0 00-.04.1.14.14 0 00.04.1l.577.576a.14.14 0 00.198 0l4.079-4.075a2.663 2.663 0 011.895-.784c.716 0 1.389.278 1.894.784.506.507.784 1.18.784 1.894a2.66 2.66 0 01-.784 1.894L7.245 11.79l-.673.673a1.615 1.615 0 01-2.755-1.14c0-.432.167-.836.472-1.141L8.413 6.06a.551.551 0 01.389-.161h.001a.545.545 0 01.386.936l-3.37 3.367a.14.14 0 00-.04.1.14.14 0 00.04.1l.576.577a.14.14 0 00.199 0l3.369-3.37c.31-.31.48-.723.48-1.162 0-.439-.171-.853-.48-1.162a1.649 1.649 0 00-2.329 0l-.4.402-3.721 3.72a2.691 2.691 0 00-.794 1.917 2.707 2.707 0 002.71 2.706 2.7 2.7 0 001.916-.792l4.832-4.828a3.757 3.757 0 001.104-2.669 3.745 3.745 0 00-1.104-2.67z" fill="#00B39B"/></svg><svg fill="none" viewBox="0 0 24 24" id="phone-filled" xmlns="http://www.w3.org/2000/svg"><path d="M3.244 5.395L5.74 2.902a1.894 1.894 0 012.688 0l2.686 2.686a1.893 1.893 0 01.558 1.342c0 .51-.2.987-.558 1.346L9.15 10.24a9.23 9.23 0 001.887 2.72 9.265 9.265 0 002.721 1.895l1.964-1.964a1.897 1.897 0 012.688 0l2.689 2.683a1.896 1.896 0 01.558 1.345c0 .51-.2.987-.558 1.346l-2.492 2.491a3.08 3.08 0 01-2.67.858c-3.159-.52-6.292-2.2-8.821-4.727-2.527-2.524-4.205-5.656-4.732-8.825a3.085 3.085 0 01.86-2.667z" fill="#00B39B"/></svg><svg fill="none" viewBox="0 0 24 24" id="support" xmlns="http://www.w3.org/2000/svg"><path d="M15.75 2.25c-3.322 0-6 2.678-6 6 0 .176.028.415.047.633l-6.422 6.422a3.75 3.75 0 000 5.32 3.75 3.75 0 005.32 0l6.422-6.422c.217.02.457.047.633.047 3.323 0 6-2.678 6-6a5.697 5.697 0 00-.703-2.766l-.47-.867-.702.704-3.235 3.21-1.171-1.172 3.21-3.234.705-.703-.868-.47a5.713 5.713 0 00-2.766-.702zm0 1.5c.364 0 .636.158.96.235L13.875 6.82l-.54.54.54.515 2.25 2.25.516.54.539-.54 2.836-2.835c.077.324.234.596.234.96 0 2.527-1.973 4.5-4.5 4.5-.3 0-.54 0-.727-.047l-.398-.117-.305.305-6.68 6.68c-.922.923-2.287.923-3.21 0l-.024-.024c-.9-.922-.892-2.272.023-3.187l6.68-6.68.305-.304-.118-.398c-.045-.187-.047-.427-.047-.727 0-2.528 1.973-4.5 4.5-4.5l.001-.001z" fill="#00B39B"/></svg><svg fill="none" viewBox="0 0 38 38" id="telegram-color" xmlns="http://www.w3.org/2000/svg"><path d="M15.624 30.41l.498-7.639 13.663-12.497c.605-.56-.125-.83-.925-.343L11.995 20.75 4.702 18.4c-1.566-.452-1.583-1.553.356-2.348L33.467 4.93c1.299-.596 2.544.325 2.046 2.348L30.674 30.41c-.338 1.643-1.316 2.04-2.668 1.282l-7.365-5.526-3.54 3.486c-.41.415-.747.758-1.477.758z" fill="#006EB6"/></svg><svg fill="none" viewBox="0 0 38 38" id="telegram-white" xmlns="http://www.w3.org/2000/svg"><path d="M15.624 30.41l.498-7.639 13.663-12.497c.605-.56-.125-.83-.925-.343L11.995 20.75 4.702 18.4c-1.566-.452-1.583-1.553.356-2.348L33.467 4.93c1.299-.596 2.544.325 2.046 2.348L30.674 30.41c-.338 1.643-1.316 2.04-2.668 1.282l-7.365-5.526-3.54 3.486c-.41.415-.747.758-1.477.758z" fill="#fff"/></svg><svg fill="none" viewBox="0 0 38 38" id="whatsapp-color" xmlns="http://www.w3.org/2000/svg"><path d="M19.578 2.375C10.825 2.375 3.69 9.51 3.69 18.262c0 2.805.737 5.53 2.116 7.936l-2.245 8.24 8.417-2.213a15.89 15.89 0 007.599 1.94c8.753 0 15.887-7.134 15.887-15.887 0-4.248-1.652-8.24-4.65-11.238a15.735 15.735 0 00-11.237-4.665zm.016 2.677c3.527 0 6.829 1.379 9.33 3.88a13.187 13.187 0 013.863 9.346c0 7.278-5.931 13.194-13.21 13.194a12.99 12.99 0 01-6.716-1.844l-.481-.272-5.002 1.314 1.33-4.873-.32-.513a13.126 13.126 0 01-2.02-7.022c.016-7.278 5.931-13.21 13.226-13.21zM13.95 10.92c-.257 0-.69.096-1.058.497-.353.4-1.395 1.378-1.395 3.318 0 1.956 1.427 3.832 1.603 4.104.224.273 2.822 4.28 6.813 5.98.946.433 1.684.673 2.26.85.947.304 1.812.256 2.502.16.77-.113 2.34-.962 2.677-1.892.336-.93.336-1.715.24-1.892-.112-.16-.368-.256-.77-.433-.4-.224-2.356-1.186-2.709-1.314-.368-.128-.593-.192-.897.192-.257.401-1.026 1.299-1.25 1.555-.241.273-.466.305-.85.113-.417-.209-1.7-.626-3.207-1.972-1.186-1.058-1.971-2.357-2.212-2.758-.192-.384-.016-.625.176-.801.177-.176.433-.465.594-.705.208-.225.272-.401.4-.658.129-.272.065-.497-.032-.69-.096-.175-.897-2.163-1.234-2.949-.32-.77-.641-.673-.898-.69-.224 0-.48-.015-.753-.015z" fill="#00B39B"/></svg><svg fill="none" viewBox="0 0 38 38" id="whatsapp-white" xmlns="http://www.w3.org/2000/svg"><path d="M19.578 2.375C10.825 2.375 3.69 9.51 3.69 18.262c0 2.805.737 5.53 2.116 7.936l-2.245 8.24 8.417-2.213a15.89 15.89 0 007.599 1.94c8.753 0 15.887-7.134 15.887-15.887 0-4.248-1.652-8.24-4.65-11.238a15.735 15.735 0 00-11.237-4.665zm.016 2.677c3.527 0 6.829 1.379 9.33 3.88a13.187 13.187 0 013.863 9.346c0 7.278-5.931 13.194-13.21 13.194a12.99 12.99 0 01-6.716-1.844l-.481-.272-5.002 1.314 1.33-4.873-.32-.513a13.126 13.126 0 01-2.02-7.022c.016-7.278 5.931-13.21 13.226-13.21zM13.95 10.92c-.257 0-.69.096-1.058.497-.353.4-1.395 1.378-1.395 3.318 0 1.956 1.427 3.832 1.603 4.104.224.273 2.822 4.28 6.813 5.98.946.433 1.684.673 2.26.85.947.304 1.812.256 2.502.16.77-.113 2.34-.962 2.677-1.892.336-.93.336-1.715.24-1.892-.112-.16-.368-.256-.77-.433-.4-.224-2.356-1.186-2.709-1.314-.368-.128-.593-.192-.897.192-.257.401-1.026 1.299-1.25 1.555-.241.273-.466.305-.85.113-.417-.209-1.7-.626-3.207-1.972-1.186-1.058-1.971-2.357-2.212-2.758-.192-.384-.016-.625.176-.801.177-.176.433-.465.594-.705.208-.225.272-.401.4-.658.129-.272.065-.497-.032-.69-.096-.175-.897-2.163-1.234-2.949-.32-.77-.641-.673-.898-.69-.224 0-.48-.015-.753-.015z" fill="#fff"/></svg></svg>