<svg version="1" xmlns="http://www.w3.org/2000/svg" width="1280" height="1280" viewBox="0 0 960.000000 960.000000"><path d="M956.5 113.3c-1.1.7-2.3 1.6-2.7 2.2-.4.5-.8.6-.8.1s-.6-.4-1.2.1c-1.2 1-21.5 11.6-44.8 23.5-5.8 2.9-10.7 5.5-11 5.8-.3.3-4.1 2.3-8.5 4.4-4.4 2.2-9.2 4.8-10.7 5.9-1.6 1-2.8 1.5-2.8 1.1 0-.3-.6-.2-1.2.4-.7.5-7.6 4.3-15.3 8.2-7.7 4-17.8 9.3-22.5 11.8-34.4 18.2-64.3 32.6-86.3 41.7-4.8 2-10 4.1-11.5 4.7-1.5.6-2.9 1.2-3.2 1.2-.3.1-3.9 1.5-8 3.1s-8.1 3-8.9 3.1c-.7.2-3.6 1.2-6.5 2.3-5.8 2.3-40.4 13-44.4 13.7-1.4.3-2.9.7-3.4 1-.4.3-1.8.7-2.9.9-1.2.2-5.9 1.4-10.4 2.5s-9.1 2.2-10.1 2.5c-1.1.2-5.1 1-8.9 1.9-3.9.8-8.2 1.7-9.5 2-1.4.2-3.2.7-4 1-.8.2-3.3.7-5.5 1-2.2.3-5 .7-6.1 1-1.2.2-3.7.7-5.5 1-1.9.3-5.1.8-7.3 1.1-2.1.4-4.8.8-6 1.1-1.1.2-4.2.6-6.7.9-2.5.3-5.4.7-6.5.9-1 .2-4.8.7-8.4 1.1-3.6.4-7.8.9-9.5 1.1-1.6.2-5.9.6-9.5.9-3.6.4-8.3.8-10.5 1-20.6 1.9-70.1 2.5-93.5 1.1-18.1-1-33-2.3-37.9-3-1.4-.3-5.7-.7-9.5-1.1-3.8-.3-7.2-.8-7.5-.9-.3-.2-3.3-.7-6.6-1.1-3.3-.3-8.2-1.1-10.8-1.6-2.6-.5-5.1-.8-5.5-.8-.4.1-.9 0-1.2-.1-.3-.1-1.6-.3-3-.5s-7.2-1.3-13-2.4c-13.8-2.8-13.4-2.7-22-4.6-4.1-1-9.5-2.1-12-2.6s-5.6-1.3-7-1.9c-1.4-.5-3.7-1.2-5.2-1.4-1.5-.3-3.1-.7-3.6-1-.5-.3-2.3-.8-4-1.1-1.8-.3-5.1-1.1-7.5-1.9-2.3-.7-7.6-2.3-11.7-3.6-17.3-5.1-48.1-16-60-21.2-1.4-.6-3.4-1.4-4.5-1.8-2.7-1.1-9.1-3.8-14-6-2.2-1-6.9-3.1-10.5-4.6-3.6-1.6-6.6-3.2-6.8-3.6-.2-.4-1.2-.8-2.3-.8-1 0-1.9-.5-1.9-1 0-.6-.6-1-1.4-1-.8 0-11.5-5.1-23.8-11.4-12.2-6.2-38-19.3-57.3-29.1-19.2-9.7-35.4-18-36-18.3-.5-.4-1.6-.7-2.3-.8-.8-.2-2.2-1-3.3-2-1-.9-1.9-1.4-1.9-.9 0 .4-.6.3-1.3-.3-.7-.6-11.5-6.3-24-12.6L0 114.1V848h208.8l-.1-204c-.1-135.9.1-204 .8-204 .6 0 4.2.9 8 2.1 8.2 2.4 17.4 4.9 19.5 5.4.8.2 1.5.4 1.5.5 0 .1.7.3 1.5.5 3.6.9 6 1.5 15 3.9 5.2 1.4 10.6 2.7 12 3 1.4.3 4.5 1 7 1.6 2.5.6 5.6 1.3 7 1.5 1.4.3 6.6 1.4 11.5 2.4 5 1.1 10.4 2.2 12 2.5 1.7.4 3.9.8 5 1.1 1.1.2 3.6.6 5.5.9 1.9.2 4.6.7 6 1 1.4.3 3.9.8 5.5 1.1 8.3 1.4 16.6 2.7 22.5 3.5 3.6.5 7.6 1.1 9 1.4 1.4.2 5.2.7 8.5 1 3.3.4 7.8.8 10 1.1 8 1 13.1 1.5 20 2 3.9.3 8.9.7 11.2 1 5.6.7 40.5 2.7 44.1 2.6.6-.1 1.8-.1 2.5-.1 25.3.4 50.7.4 50.7 0 0-.3 4.8-.5 10.8-.6 10.6-.1 26.7-.9 37.2-1.9 3-.3 7.8-.7 10.5-1 2.8-.2 5-.4 5-.5 0 0 2.5-.3 5.5-.5s7.5-.7 10-1c7.3-.9 12.3-1.5 15.5-1.9 3.8-.5 25.3-3.7 28-4.1 1.1-.2 3.8-.6 5.9-1 2.2-.3 14.1-2.6 26.5-5.1 29.7-6 28.5-5.7 31.1-6.6 1.4-.6 20.6-5.3 25.9-6.4 1.3-.3 3.2-.9 4.3-1.5 1-.5 1.8-.8 1.8-.6 0 .3 3.7-.6 8.3-2 12-3.6 18.1-5.3 19.2-5.3.7 0 1 68.3.9 203.3-.1 111.7.2 203.4.6 203.7.5.3 47.3.5 104.2.5h103.3V479.7c0-202.2-.2-367.7-.5-367.6-.3 0-1.4.6-2.5 1.2z"/></svg>